<?xml version="1.0" encoding="UTF-8"?>
<svg version="1.1" xmlns="http://www.w3.org/2000/svg" width="336" height="354">
<path d="M0 0 C110.88 0 221.76 0 336 0 C336 116.82 336 233.64 336 354 C225.12 354 114.24 354 0 354 C0 237.18 0 120.36 0 0 Z " fill="#090909" transform="translate(0,0)"/>
<path d="M0 0 C110.88 0 221.76 0 336 0 C336 116.82 336 233.64 336 354 C225.12 354 114.24 354 0 354 C0 237.18 0 120.36 0 0 Z M98 39 C97.06929688 39.73992188 96.13859375 40.47984375 95.1796875 41.2421875 C93.49983445 42.5792134 91.82459448 43.92207847 90.15625 45.2734375 C88.71296642 46.42911022 87.23201344 47.53916865 85.71875 48.6015625 C85.1515625 49.06304687 84.584375 49.52453125 84 50 C84 50.66 84 51.32 84 52 C83.45988281 52.20625 82.91976562 52.4125 82.36328125 52.625 C79.06951233 54.54137464 76.7209907 57.20381834 74.1875 60 C73.65560059 60.58233398 73.12370117 61.16466797 72.57568359 61.76464844 C68.25931576 66.56353439 64.53318518 71.59901119 61 77 C60.525625 77.64324219 60.05125 78.28648438 59.5625 78.94921875 C41.9897764 103.2549696 34.74197967 135.58635917 33.24609375 165.015625 C33 168 33 168 32 170 C31.75212983 174.14503661 31.75212983 174.14503661 33 178 C33.25505816 179.71863222 33.46369355 181.44426942 33.6484375 183.171875 C33.76477539 184.22149414 33.88111328 185.27111328 34.00097656 186.35253906 C34.1244043 187.47370117 34.24783203 188.59486328 34.375 189.75 C37.34625951 215.17395784 44.01955564 241.58010073 58.71484375 262.9609375 C60 265 60 265 60 267 C58.08813477 268.40454102 58.08813477 268.40454102 55.44140625 270.00390625 C54.02698242 270.86725586 54.02698242 270.86725586 52.58398438 271.74804688 C51.58689453 272.34681641 50.58980469 272.94558594 49.5625 273.5625 C47.60485844 274.75029679 45.64779538 275.93904774 43.69140625 277.12890625 C42.37958374 277.91890015 42.37958374 277.91890015 41.04125977 278.72485352 C39.0837421 279.8412314 39.0837421 279.8412314 38 281 C37.83333333 283.5 37.83333333 283.5 38 286 C38.33 286.33 38.66 286.66 39 287 C46.42671601 286.84527675 51.28024669 282.93860512 56.953125 278.45703125 C61.43338617 274.979959 61.43338617 274.979959 64.4296875 275.0859375 C67.74755583 276.26584812 69.1088015 277.88314979 71.375 280.5625 C72.15746094 281.47 72.93992188 282.3775 73.74609375 283.3125 C74.48988281 284.199375 75.23367187 285.08625 76 286 C94.49185177 308.01218241 119.2545581 322.16988575 147 329 C148.21945313 329.30035156 149.43890625 329.60070312 150.6953125 329.91015625 C182.88507351 336.90086192 215.0908059 328.5746403 242.75 311.5625 C247.40406986 308.52184103 251.72558101 305.14743846 256.00390625 301.6015625 C258 300 258 300 260 299 C260 304.61 260 310.22 260 316 C261.65 316.33 263.3 316.66 265 317 C264.96745117 316.37134033 264.93490234 315.74268066 264.90136719 315.0949707 C264.10722595 294.80911512 264.10722595 294.80911512 269.80444336 288.49536133 C271.94293478 286.45925688 274.13210742 284.49098 276.35693359 282.54980469 C279.19295542 279.87475765 281.42252043 276.78513573 283.6875 273.625 C284.13883301 272.99787109 284.59016602 272.37074219 285.05517578 271.72460938 C296.32540075 255.79351935 305.01841577 238.91735837 310 220 C310.22993652 219.12778809 310.45987305 218.25557617 310.69677734 217.35693359 C314.10503088 204.0585144 315.7202939 191.7175972 315 178 C315.66 178 316.32 178 317 178 C319.33296251 175.17282787 319.33296251 175.17282787 318.75 171.9375 C318.2406756 168.900541 318.2406756 168.900541 316 167 C315.63696289 164.70019531 315.63696289 164.70019531 315.47265625 161.828125 C315.37029663 160.25248779 315.37029663 160.25248779 315.26586914 158.64501953 C315.19875732 157.52466309 315.13164551 156.40430664 315.0625 155.25 C314.40906366 145.88695386 313.42372348 137.08591818 311 128 C310.77441406 127.07960938 310.54882812 126.15921875 310.31640625 125.2109375 C300.26322069 85.79336246 274.73842299 51.74025081 239.92773438 30.75048828 C194.57997564 4.68766979 139.40188331 5.33897873 98 39 Z " fill="#FFFFFF" transform="translate(0,0)"/>
<path d="M0 0 C0.86625 0.64453125 1.7325 1.2890625 2.625 1.953125 C37.68274922 28.69589524 53.45012441 68.70106973 59.29345703 111.13085938 C60.46886882 120.29669677 60.46886882 120.29669677 58 124 C58.28854588 126.71233124 58.73251028 129.1982973 59.59643555 131.78759766 C60.1546083 134.84758645 59.65044486 137.3953035 59.14453125 140.4609375 C58.82838867 142.37712891 58.82838867 142.37712891 58.50585938 144.33203125 C58.39137451 144.99799316 58.27688965 145.66395508 58.15893555 146.35009766 C57.81991646 148.33165107 57.49862258 150.31621111 57.17773438 152.30078125 C55.87186002 160.05852741 54.16196646 167.48354526 51.89819336 175.01074219 C51.11405501 177.62041599 50.41494892 180.23316001 49.75 182.875 C46.58352382 193.276704 40.70908704 203.02486155 35.25 212.375 C34.88567871 213.01139404 34.52135742 213.64778809 34.14599609 214.3034668 C32.15317483 217.62984723 30.77308704 219.86708228 27 221 C24.203125 220.1015625 24.203125 220.1015625 21.25 218.625 C20.26515625 218.14289063 19.2803125 217.66078125 18.265625 217.1640625 C17.51796875 216.77992188 16.7703125 216.39578125 16 216 C14.36953345 187.02159266 14.36953345 187.02159266 24 175 C25.33591971 173.14769594 26.66932738 171.29357709 28 169.4375 C28.6496875 168.56351563 29.299375 167.68953125 29.96875 166.7890625 C37.40423106 157.36394914 37.40423106 157.36394914 40.5625 146.25 C40.34851359 143.15646125 40.34851359 143.15646125 39 142 C35.60852089 141.52767568 35.60852089 141.52767568 32 143 C29.69389379 146.40118458 28.40242917 150.15492929 27 154 C26.16771906 156.16707114 25.33437507 158.33373429 24.5 160.5 C24.09394531 161.57636719 23.68789063 162.65273437 23.26953125 163.76171875 C21.37359377 168.59781775 19.21254081 173.30188144 17 178 C16.34 178 15.68 178 15 178 C15 159.85 15 141.7 15 123 C15.66 123 16.32 123 17 123 C19.73506974 114.3134185 18.41346104 103.59795496 16 95 C13.525 95.495 13.525 95.495 11 96 C9.10375256 101.59130667 8.72195323 106.4942254 8.8125 112.375 C8.81314453 113.19355469 8.81378906 114.01210937 8.81445312 114.85546875 C8.46980147 118.74004261 8.46980147 118.74004261 10 122 C10.09386381 123.8718094 10.11743804 125.7471806 10.11352539 127.62133789 C10.11344986 128.82250748 10.11337433 130.02367706 10.11329651 131.26124573 C10.10813522 132.5685112 10.10297394 133.87577667 10.09765625 135.22265625 C10.09579198 136.56644132 10.09436812 137.91022707 10.09336853 139.25401306 C10.08954402 142.79682277 10.07971432 146.3395917 10.06866455 149.88238525 C10.05844899 153.49515227 10.0538706 157.10792584 10.04882812 160.72070312 C10.03809198 167.8138188 10.02101636 174.90690674 10 182 C9.34 182 8.68 182 8 182 C3.70949695 173.87772692 1.49121877 167.32150021 0.4921875 158.1875 C-0.1906967 153.76501182 -1.63151492 150.77477309 -4 147 C-6.70879335 145.64560332 -9.00933268 145.93498549 -12 146 C-12.7506036 156.13314855 -8.83013342 163.15645706 -2.9375 171.14453125 C-0.19159289 175.19142257 2.02098455 179.47384567 4.24707031 183.82299805 C6.157271 187.53540243 6.157271 187.53540243 8.59399414 190.90966797 C10.28436131 193.42276464 10.35065317 194.76603521 10.29296875 197.765625 C10.28330078 198.65507812 10.27363281 199.54453125 10.26367188 200.4609375 C10.23853516 201.38132813 10.21339844 202.30171875 10.1875 203.25 C10.17396484 204.18585938 10.16042969 205.12171875 10.14648438 206.0859375 C10.11119954 208.39121327 10.06190281 210.6953106 10 213 C4.62399058 212.41046372 -0.0601567 211.11550505 -5.125 209.25 C-5.86709717 208.98195557 -6.60919434 208.71391113 -7.3737793 208.43774414 C-13.95110704 206.04965299 -20.49608129 203.58158105 -27 201 C-28.01707031 200.60039062 -29.03414062 200.20078125 -30.08203125 199.7890625 C-49.76617799 191.85475945 -49.76617799 191.85475945 -54 185 C-53.3709375 184.91363281 -52.741875 184.82726562 -52.09375 184.73828125 C-44.96264243 183.56766269 -38.80565085 181.67285203 -34.28125 175.75 C-32.70638728 172.36980684 -32.76420452 170.01933258 -32.9375 166.3125 C-33.08984375 162.86328125 -33.08984375 162.86328125 -33 160 C-32.34 159.34 -31.68 158.68 -31 158 C-30.66020252 155.6945386 -30.55849274 153.42037177 -30.44140625 151.09375 C-30 149 -30 149 -27 147 C-26.41651248 144.3443272 -26.41651248 144.3443272 -26.3125 141.375 C-26.24675781 140.37210938 -26.18101562 139.36921875 -26.11328125 138.3359375 C-26.05720703 137.17964844 -26.05720703 137.17964844 -26 136 C-25.22914063 135.67386719 -24.45828125 135.34773437 -23.6640625 135.01171875 C-22.66117188 134.57472656 -21.65828125 134.13773438 -20.625 133.6875 C-19.62726563 133.25824219 -18.62953125 132.82898438 -17.6015625 132.38671875 C-14.74225492 131.1261594 -14.74225492 131.1261594 -13 128 C-12.28739444 120.14649286 -15.24137265 112.66051187 -18.00390625 105.45874023 C-20.88406513 97.6115131 -19.24055031 92.56128405 -16 85 C-15.5945897 82.67810464 -15.23927006 80.34484656 -15 78 C-14.2265625 77.90203125 -13.453125 77.8040625 -12.65625 77.703125 C-1.68889133 76.21400091 -1.68889133 76.21400091 6.90234375 69.796875 C10.50407299 64.83212349 13.54740694 59.62001224 16 54 C16.4125 53.0925 16.825 52.185 17.25 51.25 C18.40387588 46.2498712 18.6836471 41.09427355 18 36 C16.60170133 34.13967559 16.60170133 34.13967559 15 33 C14.92523438 33.6290625 14.85046875 34.258125 14.7734375 34.90625 C13.51103763 43.12422563 10.51816155 48.27162982 3.9375 53.375 C-1.37929065 56.31620334 -5.82112848 57.96324613 -12 57 C-16.28681336 55.31651459 -20.29851729 52.74051452 -23 49 C-23.61320267 46.29775094 -23.81452393 43.78214098 -24 41 C-23.34 41 -22.68 41 -22 41 C-19.125 47.625 -19.125 47.625 -18 51 C-11.84539219 53.29289311 -6.90132878 54.06389225 -0.875 51.3125 C2.63402272 49.40702686 4.88943801 47.46132166 7 44 C8.84443714 36.57240177 9.32829052 28.58650322 5.40625 21.79296875 C2.83547662 18.5152327 -0.29698328 15.90936799 -4 14 C-5.32 14 -6.64 14 -8 14 C-7.34 14.99 -6.68 15.98 -6 17 C-7.83111328 17.00386719 -7.83111328 17.00386719 -9.69921875 17.0078125 C-19.41238487 17.18184459 -26.78300647 17.93315605 -35.43359375 22.625 C-44.00788833 27.21883819 -54.93259026 25.83122876 -63.97973633 23.25830078 C-67.34120167 22.22806353 -70.67307317 21.13757027 -74 20 C-81.48260675 17.50579775 -91.76797451 17.61320567 -99.23046875 20.05859375 C-107.9454322 25.04436354 -112.98237541 32.55429907 -117.5390625 41.2578125 C-123.83794768 53.08085367 -130.80452445 59.49982099 -143.48046875 63.8515625 C-151.4955145 66.70964083 -158.06569679 71.33291009 -162.5 78.75 C-165.87298473 86.05813357 -166.71429108 94.98843416 -164.08203125 102.68359375 C-159.774028 110.37735909 -153.09709355 116.70558951 -147 123 C-151.07587476 123 -151.98590839 121.74008328 -155 119 C-156.80442908 117.01761117 -158.55501133 114.99790063 -160.29296875 112.95703125 C-161.7227789 111.31782099 -163.25723848 109.77070015 -164.8125 108.25 C-169.74848177 103.17299018 -169.50043434 97.82515967 -169.49975586 91.06884766 C-169.26571675 82.45171746 -166.67926342 75.96973158 -160.7734375 69.59765625 C-155.85682776 65.0510255 -150.97532422 61.29522641 -144.375 59.75 C-133.65563248 56.63483358 -126.40115869 50.67489105 -121 41 C-119.8183043 38.60999383 -118.6520822 36.21651364 -117.5 33.8125 C-112.78381202 24.03309611 -107.06253815 19.07895181 -97 15 C-87.11766294 11.97439382 -78.54296262 14.24070849 -69.125 17.5 C-54.60034604 22.39373815 -44.87272516 22.42442267 -30.80664062 15.93530273 C-24.87737609 13.21772316 -19.60085504 11.76266589 -13 12 C-19.16729607 5.32657325 -26.03618459 -0.59130263 -35.49487305 -1.23950195 C-36.83379662 -1.24769311 -38.17279712 -1.24678369 -39.51171875 -1.23828125 C-40.99911552 -1.2500155 -42.48650223 -1.26308563 -43.97387695 -1.27734375 C-44.74494781 -1.28233887 -45.51601868 -1.28733398 -46.31045532 -1.29248047 C-58.57780848 -1.39579643 -70.02410358 -1.70185827 -81.70703125 -5.84375 C-97.53086716 -11.39992489 -116.1449983 -9.12478759 -131 -2 C-132.61068359 -1.24009766 -132.61068359 -1.24009766 -134.25390625 -0.46484375 C-150.74174655 8.28424491 -159.96485971 21.13951023 -167.01171875 37.99609375 C-168.104398 40.21168449 -169.41284028 41.9959713 -170.9375 43.9375 C-175.9395469 50.32688306 -179.90183869 56.70308406 -179 65 C-178.525625 64.175 -178.05125 63.35 -177.5625 62.5 C-170.94362894 52.66491694 -161.84880645 48.49708717 -150.9375 45.125 C-141.32505701 41.96156578 -135.85329132 36.78942523 -131 28 C-130.16171871 26.24379073 -129.32387289 24.48734292 -128.49731445 22.72558594 C-124.69667294 14.66265208 -120.39498085 9.92998723 -113 5 C-111.515 5.495 -111.515 5.495 -110 6 C-110.70125 6.52464844 -111.4025 7.04929688 -112.125 7.58984375 C-119.06638992 13.25801677 -122.61252479 18.52553402 -126.14819336 26.72900391 C-130.69000686 37.15714728 -136.4607489 43.98047738 -147.08203125 48.234375 C-151.07796529 49.7870808 -155.08743142 51.30002111 -159.11328125 52.7734375 C-167.19995203 55.93374562 -173.66694366 61.39135176 -177.5859375 69.1328125 C-179.31442264 73.26254 -179.41213623 77.00966576 -179.3125 81.4375 C-179.31572266 82.14970703 -179.31894531 82.86191406 -179.32226562 83.59570312 C-179.15913584 99.92351142 -171.04145816 114.83863646 -162.25927734 128.09375 C-160.27478088 131.09781134 -158.34881305 134.13653023 -156.4375 137.1875 C-155.79683594 138.19167969 -155.15617187 139.19585937 -154.49609375 140.23046875 C-147.80265646 152.62119209 -152.14504899 173.12821384 -155.87890625 186.0390625 C-160.78139717 199.29014674 -169.97827188 208.00554 -182 215 C-196.42096425 201.88424444 -203.06984766 175.55763147 -206 157 C-206.42075334 155.06216421 -206.84155948 153.12433892 -207.26464844 151.18701172 C-208.98678176 143.04366767 -209.22909406 135.26511641 -209.0078125 126.9609375 C-208.88710703 123.12808191 -208.88710703 123.12808191 -209.53125 119.91015625 C-212.73063472 100.04730947 -202.97099407 71.34097926 -193.9128418 53.77514648 C-193.20558864 52.39979539 -192.5442006 51.00080986 -191.90234375 49.59375 C-186.15471715 37.12116758 -177.53982203 25.793794 -168 16 C-167.13246094 15.07058594 -166.26492187 14.14117187 -165.37109375 13.18359375 C-120.59274137 -34.00787033 -51.73056431 -40.38151193 0 0 Z " fill="#F0F2F1" transform="translate(250,47)"/>
<path d="M0 0 C5.33462819 1.33635131 5.33462819 1.33635131 8 3 C9.44683826 5.70999882 9.73933834 8.47697982 10.125 11.5 C12.26872313 23.77113536 17.31027473 34.38235639 27.609375 41.90625 C30.36057225 43.69984821 33.14549133 45.37660252 36 47 C36.63421875 47.36738281 37.2684375 47.73476562 37.921875 48.11328125 C42.43086308 50.53736113 47.22364329 52.30655673 52 54.125 C52.66475342 54.37902588 53.32950684 54.63305176 54.0144043 54.89477539 C58.62114875 56.60708185 63.22077285 57.85582062 68 59 C69.485 59.495 69.485 59.495 71 60 C70.17987913 72.50684323 65.77239389 81.27305519 58 91 C57.53980469 91.62519531 57.07960938 92.25039063 56.60546875 92.89453125 C52.93057805 97.63525127 48.26748628 101.00631777 43.40551758 104.44946289 C40.13057681 106.82015468 40.13057681 106.82015468 38.03515625 110.1953125 C37.81411574 112.10819901 37.81411574 112.10819901 39.25 113.6875 C42.31789487 115.98842115 45.05123068 116.12790883 48.75 116.1328125 C49.73387695 116.13482666 50.71775391 116.13684082 51.73144531 116.13891602 C52.81006836 116.13432373 53.88869141 116.12973145 55 116.125 C56.12760742 116.12234131 57.25521484 116.11968262 58.41699219 116.11694336 C68.36474013 116.06408675 78.30626387 115.83785763 88.25 115.5625 C88.98154297 115.5429425 89.71308594 115.52338501 90.46679688 115.50323486 C108.52958327 115.56816873 108.52958327 115.56816873 126 112 C126 110.68 126 109.36 126 108 C110.13468294 107.70391321 94.32397549 108.56643208 78.48675537 109.39068604 C74.92623512 109.57499459 71.36545031 109.75404352 67.8046875 109.93359375 C60.86953087 110.28404427 53.93467397 110.64012788 47 111 C49.6606588 108.31681624 52.24926648 105.7335158 55.25 103.4375 C65.36076352 94.77426445 72.81114024 81.56657928 77 69 C79.99240791 69.6050583 82.04920974 70.53466582 84.5625 72.25 C92.44263789 77.32311289 101.29762416 80.61284773 110 84 C110.88171875 84.35578125 111.7634375 84.7115625 112.671875 85.078125 C123.93846078 89.54899237 135.48682607 93.22327355 147 97 C148.61033118 115.11250961 148.61033118 115.11250961 145.30078125 121.046875 C142.68314162 123.41789404 140.02624274 125.17899785 137 127 C135.88095865 127.79879158 134.76921989 128.60788843 133.6640625 129.42578125 C106.61999492 149.04899257 74.55658833 156.66449998 41.49121094 152.23095703 C9.30974998 146.97316119 -20.88619429 125.88937798 -40 100 C-40.33 99.01 -40.66 98.02 -41 97 C-40.46632813 96.59910156 -39.93265625 96.19820313 -39.3828125 95.78515625 C-22.74253158 83.08902496 -13.12490002 71.6809742 -10.03833008 50.71289062 C-9.19882483 45.19882483 -9.19882483 45.19882483 -7 43 C-4.72412242 48.66076331 -4.34471621 54.30280932 -3.75 60.3125 C-1.39992185 81.59255115 2.85441097 107.9209298 13 127 C15.475 126.505 15.475 126.505 18 126 C17.36814882 120.66495165 16.17605279 115.73412993 14.63671875 110.59375 C14.15813362 108.95797431 13.68029717 107.32197944 13.203125 105.68579102 C12.95498047 104.83880646 12.70683594 103.9918219 12.45117188 103.11917114 C8.00167261 87.85869021 4.02921463 72.79587824 2 57 C1.86158691 55.94103516 1.72317383 54.88207031 1.58056641 53.79101562 C0.78316883 47.62971298 0.02506356 41.46542515 -0.67456055 35.29223633 C-0.94612297 33.03990586 -0.94612297 33.03990586 -1.52783203 31.05541992 C-2.61058083 26.34204758 -2.18478123 21.31221565 -2.1875 16.5 C-2.19974609 15.35917969 -2.21199219 14.21835938 -2.22460938 13.04296875 C-2.22654297 11.94597656 -2.22847656 10.84898437 -2.23046875 9.71875 C-2.23457764 8.71779297 -2.23868652 7.71683594 -2.24291992 6.68554688 C-1.99651272 3.96144713 -1.39540647 2.32556223 0 0 Z " fill="#EFF1F0" transform="translate(113,171)"/>
<path d="M0 0 C7.36238071 3.4874435 11.71910514 8.97071368 16.39453125 15.35986328 C22.85596903 24.04685114 31.86166855 27.35865584 42.32421875 29.46875 C43.87637446 29.695434 45.43782064 29.85798369 47 30 C47.25 32.75 47.25 32.75 47 36 C46.34 36.5775 45.68 37.155 45 37.75 C42.21373363 40.88454967 42.62867511 43.10231595 42.7109375 47.17871094 C43.20150803 51.96674563 44.81911556 56.2654782 46.5 60.75 C50.5 71.60714286 50.5 71.60714286 50 77 C46.19854082 78.26715306 42.57674304 78.36947994 38.59375 78.62109375 C35.76889215 78.84452637 35.76889215 78.84452637 33 81 C33.33 82.65 33.66 84.3 34 86 C35.485 86.495 35.485 86.495 37 87 C37 88.98 37 90.96 37 93 C35.81921875 93.12117188 34.6384375 93.24234375 33.421875 93.3671875 C31.86453957 93.5360552 30.30725023 93.70534835 28.75 93.875 C27.97269531 93.95363281 27.19539063 94.03226562 26.39453125 94.11328125 C20.94283448 94.70665441 20.94283448 94.70665441 16 97 C16.33 98.65 16.66 100.3 17 102 C21.95 102 26.9 102 32 102 C31.67 103.65 31.34 105.3 31 107 C30.05125 107.226875 29.1025 107.45375 28.125 107.6875 C24.80676612 108.69083714 24.80676612 108.69083714 23.625 111.625 C23.41875 112.40875 23.2125 113.1925 23 114 C24.134375 114.144375 25.26875 114.28875 26.4375 114.4375 C30 115 30 115 31 116 C31.375 119.3125 31.375 119.3125 31 123 C25.7787197 128.2212803 21.15702296 128.3452604 14.15161133 128.3894043 C1.44118802 128.1640562 -10.5634851 123.20474575 -22 118 C-22.71285156 117.70738281 -23.42570312 117.41476563 -24.16015625 117.11328125 C-30.45101268 114.34930656 -35.14320758 109.77291 -40 105 C-40.52980469 104.48308594 -41.05960938 103.96617187 -41.60546875 103.43359375 C-46.24822897 98.41941271 -48.6848536 92.01458222 -49.38671875 85.30078125 C-49.88814524 78.30726906 -49.88814524 78.30726906 -53.53222656 72.62890625 C-56.68456137 70.59943476 -59.97528577 69.13476997 -63.43359375 67.7109375 C-68.40363142 65.32662589 -70.22743782 62.46234984 -72.75 57.6875 C-74.15232044 53.55065471 -75.01564812 50.29761849 -74 46 C-72.46063807 43.02277252 -70.74608265 40.93156661 -68 39 C-65.10977655 38.10540703 -62.90477661 38.19728837 -60 39 C-56.5625 40.9375 -56.5625 40.9375 -54 44 C-53.23962886 47.01127115 -53.01350633 49.90029617 -53 53 C-41.55961827 55.54230705 -31.31939977 54.37913986 -21.3125 48.375 C-16.48847441 44.91736508 -13.79326752 41.19520771 -11 36 C-10.4416748 34.97471191 -10.4416748 34.97471191 -9.87207031 33.92871094 C-2.36870911 20.26029921 -2.36870911 20.26029921 -2 5 C-3.09539142 3.70886604 -3.09539142 3.70886604 -5.75 3.5625 C-9.13421012 3.70777618 -9.13421012 3.70777618 -11.4375 6.1875 C-14.59391484 10.41973469 -16.824845 15.25876653 -19.15625 19.9765625 C-22.69303706 25.77629382 -27.6303224 28.29733618 -34 30 C-40.24240105 30.80920014 -45.51200111 28.86872669 -51 26 C-52.796875 24.36328125 -52.796875 24.36328125 -54 23 C-50.44824356 22.74630311 -48.41698671 22.7725527 -45.25 24.5 C-40.76748888 26.56885128 -36.86172842 26.7126312 -32 26 C-25.43673212 22.71836606 -22.46044009 17.93159888 -19.25 11.5625 C-15.30410527 4.22591182 -9.15872275 -2.69374198 0 0 Z " fill="#F0F1F1" transform="translate(179,96)"/>
<path d="M0 0 C1.98 0.33 3.96 0.66 6 1 C6 1.99 6 2.98 6 4 C6.33 4.66 6.66 5.32 7 6 C5.16888672 6.00386719 5.16888672 6.00386719 3.30078125 6.0078125 C-6.41238487 6.18184459 -13.78300647 6.93315605 -22.43359375 11.625 C-31.00788833 16.21883819 -41.93259026 14.83122876 -50.97973633 12.25830078 C-54.34120167 11.22806353 -57.67307317 10.13757027 -61 9 C-68.48260675 6.50579775 -78.76797451 6.61320567 -86.23046875 9.05859375 C-94.9454322 14.04436354 -99.98237541 21.55429907 -104.5390625 30.2578125 C-110.83794768 42.08085367 -117.80452445 48.49982099 -130.48046875 52.8515625 C-138.4955145 55.70964083 -145.06569679 60.33291009 -149.5 67.75 C-152.87298473 75.05813357 -153.71429108 83.98843416 -151.08203125 91.68359375 C-146.774028 99.37735909 -140.09709355 105.70558951 -134 112 C-138.07587476 112 -138.98590839 110.74008328 -142 108 C-143.80442908 106.01761117 -145.55501133 103.99790063 -147.29296875 101.95703125 C-148.7227789 100.31782099 -150.25723848 98.77070015 -151.8125 97.25 C-156.74848177 92.17299018 -156.50043434 86.82515967 -156.49975586 80.06884766 C-156.26571675 71.45171746 -153.67926342 64.96973158 -147.7734375 58.59765625 C-142.85682776 54.0510255 -137.97532422 50.29522641 -131.375 48.75 C-120.65563248 45.63483358 -113.40115869 39.67489105 -108 30 C-106.8183043 27.60999383 -105.6520822 25.21651364 -104.5 22.8125 C-99.78381202 13.03309611 -94.06253815 8.07895181 -84 4 C-74.11766294 0.97439382 -65.54296262 3.24070849 -56.125 6.5 C-41.60034604 11.39373815 -31.87272516 11.42442267 -17.80664062 4.93530273 C-11.87737609 2.21772316 -6.60085504 0.76266589 0 1 C0 0.67 0 0.34 0 0 Z " fill="#DCDDDC" transform="translate(237,58)"/>
<path d="M0 0 C1.78515625 1.4765625 1.78515625 1.4765625 3 3 C3 5.0625 3 5.0625 2 7 C1.236875 7.2475 0.47375 7.495 -0.3125 7.75 C-3.9480759 9.44096553 -4.38208409 11.55095698 -5.9609375 15.09375 C-7.42193313 17.77407282 -9.25985732 18.77414669 -12 20 C-12.66 20.33 -13.32 20.66 -14 21 C-20.87451761 21.77945274 -26.27595092 20.98075356 -32 17 C-34.70435678 14.46466552 -34.97171963 13.49019313 -35.1875 9.75 C-35.0946875 8.38875 -35.0946875 8.38875 -35 7 C-36.32 6.34 -37.64 5.68 -39 5 C-38.63327178 2.34122043 -38.20911362 1.20164528 -36.25 -0.6875 C-27.14314795 -5.99983036 -9.17207277 -4.21325838 0 0 Z " fill="#0B0C0C" transform="translate(214,129)"/>
<path d="M0 0 C5.04454212 0.40356337 9.35966821 1.41689672 14.16796875 3.0078125 C22.83556198 5.52625247 31.21621963 5.60256011 40.1875 5.625 C42.55929505 5.64139545 44.93070183 5.66339251 47.30232239 5.69662476 C48.76241453 5.71613335 50.22268609 5.72560285 51.6829071 5.72354126 C55.34684007 5.76244949 56.86338881 5.90892587 60 8 C58.35 8 56.7 8 55 8 C54.96132812 8.60328125 54.92265625 9.2065625 54.8828125 9.828125 C54 12 54 12 51.3671875 13.484375 C39.74566642 17.69620143 28.27533403 19.27737232 16.5 14.3359375 C10.20215362 10.97052584 4.79581017 6.25992083 0 1 C0 0.67 0 0.34 0 0 Z " fill="#090909" transform="translate(161,39)"/>
<path d="M0 0 C9.55096802 5.53131601 14.61376455 12.12472009 19.609375 21.8828125 C23.52971743 29.27839298 27.0550458 33.41534353 35.046875 36.1328125 C45.3936009 38.73498308 54.9387171 36.36722419 65.171875 34.2578125 C61.35981774 38.80933237 55.78248533 39.32693246 50.171875 40.2578125 C40.72461846 41.02964719 31.57585089 40.95259626 23.859375 34.8828125 C19.80897423 30.9266071 17.24556847 27.67922241 15.234375 22.3828125 C11.90974578 13.7643506 7.49611294 8.51672493 -0.828125 4.2578125 C-8.35005628 1.33688736 -16.55364483 -0.47626317 -24.39453125 2.1015625 C-30.73316668 4.96604508 -35.24159073 9.09475856 -39.828125 14.2578125 C-40.48828125 12.4765625 -40.48828125 12.4765625 -40.828125 10.2578125 C-32.87924463 -3.84603749 -13.71076722 -6.57932789 0 0 Z " fill="#DDDDDF" transform="translate(184.828125,79.7421875)"/>
<path d="M0 0 C0.99 0.33 1.98 0.66 3 1 C1.948125 1.78697266 1.948125 1.78697266 0.875 2.58984375 C-6.06638992 8.25801677 -9.61252479 13.52553402 -13.14819336 21.72900391 C-17.69000686 32.15714728 -23.4607489 38.98047738 -34.08203125 43.234375 C-38.07796529 44.7870808 -42.08743142 46.30002111 -46.11328125 47.7734375 C-54.2804121 50.96518979 -60.54158354 56.44737693 -64.6875 64.125 C-66.62183025 68.86621166 -66.73458898 73.93888644 -67 79 C-67.33 79 -67.66 79 -68 79 C-68 71.08 -68 63.16 -68 55 C-67.67 55 -67.34 55 -67 55 C-66.67 56.65 -66.34 58.3 -66 60 C-65.525625 59.175 -65.05125 58.35 -64.5625 57.5 C-57.94362894 47.66491694 -48.84880645 43.49708717 -37.9375 40.125 C-28.32505701 36.96156578 -22.85329132 31.78942523 -18 23 C-17.16171871 21.24379073 -16.32387289 19.48734292 -15.49731445 17.72558594 C-11.69667294 9.66265208 -7.39498085 4.92998723 0 0 Z " fill="#D7D8D8" transform="translate(137,52)"/>
<path d="M0 0 C2.0733705 1.97284344 4.06935762 4.00869317 6.06640625 6.05859375 C9.80669298 9.81399275 12.89937563 12.1970458 18.25 12.5625 C24.39663151 12.26139812 30.30206634 9.69163008 34.671875 5.33203125 C35.81597059 3.91537171 36.91286995 2.46083101 38 1 C38.66 1 39.32 1 40 1 C38.73218279 6.91648032 35.87547758 9.75287446 31 13 C25.71735221 15.81530331 20.9339831 16.66996583 15 16 C12.59249886 14.76949942 11.03821347 13.70903297 9 12 C7.14709059 10.45682249 5.29280331 8.9152986 3.4375 7.375 C2.52871094 6.59898437 1.61992188 5.82296875 0.68359375 5.0234375 C-4.26706404 1.29062712 -8.8410352 0.24683271 -15 1 C-20.36662745 2.82465333 -23.96478152 6.29175447 -27 11 C-28.74525698 15.31499744 -29.34145253 19.24372459 -29.625 23.875 C-29.69976562 25.02742188 -29.77453125 26.17984375 -29.8515625 27.3671875 C-29.90054688 28.23601562 -29.94953125 29.10484375 -30 30 C-32 29 -32 29 -33 26 C-33.86847508 19.0379621 -32.48693363 13.06804371 -29 7 C-21.77413377 -2.20913589 -10.60158445 -7.21810005 0 0 Z " fill="#CCCDCD" transform="translate(124,124)"/>
<path d="M0 0 C0.66 0.33 1.32 0.66 2 1 C0.35461987 4.73664573 -0.669147 5.85539122 -4.4765625 7.51953125 C-5.85613718 7.96077511 -7.23917021 8.39131332 -8.625 8.8125 C-17.23508143 11.7363321 -23.66635097 15.80171093 -28.5 23.75 C-31.87298473 31.05813357 -32.71429108 39.98843416 -30.08203125 47.68359375 C-25.774028 55.37735909 -19.09709355 61.70558951 -13 68 C-17.07587476 68 -17.98590839 66.74008328 -21 64 C-22.80442908 62.01761117 -24.55501133 59.99790063 -26.29296875 57.95703125 C-27.7227789 56.31782099 -29.25723848 54.77070015 -30.8125 53.25 C-35.74848177 48.17299018 -35.50043434 42.82515967 -35.49975586 36.06884766 C-35.26571675 27.45171746 -32.67926342 20.96973158 -26.7734375 14.59765625 C-21.72283533 9.92711612 -16.71568334 6.26286688 -10 4.5 C-6.23680142 3.4472004 -3.32419882 2.07762426 0 0 Z " fill="#DADBDA" transform="translate(116,102)"/>
<path d="M0 0 C3.11148322 2.13546006 5.79999473 4.27220229 6.79296875 8.0234375 C7.16796875 11.5234375 7.16796875 11.5234375 6.79296875 15.0234375 C4.79296875 17.4609375 4.79296875 17.4609375 2.79296875 19.0234375 C2.85097656 18.35957031 2.90898437 17.69570312 2.96875 17.01171875 C3.32967511 11.04443696 3.32967511 11.04443696 0.41796875 5.9609375 C-3.54517514 3.03575987 -6.03695493 2.62895218 -10.8828125 2.66796875 C-14.82054116 3.2702096 -16.48996355 5.17382991 -19.20703125 8.0234375 C-22.46264188 12.90685345 -21.776461 18.31508005 -21.20703125 24.0234375 C-19.04284935 28.59226595 -16.22007011 31.03938296 -12.20703125 34.0234375 C-11.18964395 35.00574248 -10.18107008 35.99813347 -9.20703125 37.0234375 C-14.18492186 36.57090199 -17.71993506 34.49464715 -21.20703125 31.0234375 C-24.75803925 25.92386962 -27.13448511 20.55469579 -26.765625 14.26171875 C-25.27754936 8.29901006 -21.28117424 3.35958663 -16.20703125 0.0234375 C-11.0714354 -1.68842778 -5.04811307 -2.23367835 0 0 Z " fill="#DADADA" transform="translate(239.20703125,73.9765625)"/>
<path d="M0 0 C0.66 0.66 1.32 1.32 2 2 C1.01 2.33 0.02 2.66 -1 3 C-1.33 3.66 -1.66 4.32 -2 5 C-2.495 4.505 -2.495 4.505 -3 4 C-5.82981591 3.41471223 -5.82981591 3.41471223 -9 4 C-13.83959222 8.34322379 -16.30624219 14.20932972 -19.15625 19.9765625 C-22.69303706 25.77629382 -27.6303224 28.29733618 -34 30 C-40.24240105 30.80920014 -45.51200111 28.86872669 -51 26 C-52.796875 24.36328125 -52.796875 24.36328125 -54 23 C-50.44824356 22.74630311 -48.41698671 22.7725527 -45.25 24.5 C-40.76748888 26.56885128 -36.86172842 26.7126312 -32 26 C-25.43673212 22.71836606 -22.46044009 17.93159888 -19.25 11.5625 C-14.80768467 3.30291873 -9.63095097 -1.32840703 0 0 Z " fill="#D2D3D3" transform="translate(179,96)"/>
<path d="M0 0 C2.95653215 1.38546013 5.48533196 3.02349716 8.125 4.9375 C17.47057884 11.14260024 26.92319606 11.95740428 38 11 C40.52318263 10.36046756 42.79276965 9.61267619 45.16796875 8.55859375 C47.44342817 7.86479695 48.77621911 8.25545252 51 9 C44.22161153 15.18896339 35.47503885 15.55390093 26.71875 15.34375 C17.23603479 14.46719649 9.86439795 10.52117805 3 4 C1.96785722 2.69139041 0.95737625 1.36426115 0 0 Z " fill="#D7D8D9" transform="translate(163,41)"/>
<path d="M0 0 C0.515625 0.70125 1.03125 1.4025 1.5625 2.125 C7.73081798 9.40045197 13.50585949 12.98575542 23.078125 14.28125 C30.76052424 14.63311561 38.51865928 12.54216594 46 11 C42.18794274 15.55151987 36.61061033 16.06911996 31 17 C21.55274346 17.77183469 12.40397589 17.69478376 4.6875 11.625 C2.20268654 9.1979729 -0.00317771 6.84163173 -2 4 C-2 3.34 -2 2.68 -2 2 C-1.34 2 -0.68 2 0 2 C0 1.34 0 0.68 0 0 Z " fill="#D0D0D0" transform="translate(204,103)"/>
<path d="M0 0 C2.97 0.495 2.97 0.495 6 1 C6 1.99 6 2.98 6 4 C6.495 4.99 6.495 4.99 7 6 C5.16888672 6.00386719 5.16888672 6.00386719 3.30078125 6.0078125 C-6.55661075 6.18639935 -13.88157838 6.98421021 -22.62890625 11.8203125 C-23.41136719 12.20960937 -24.19382813 12.59890625 -25 13 C-25.66 12.67 -26.32 12.34 -27 12 C-27 11.01 -27 10.02 -27 9 C-10.04255319 0.85106383 -10.04255319 0.85106383 0 1 C0 0.67 0 0.34 0 0 Z " fill="#D2D2D2" transform="translate(237,58)"/>
<path d="M0 0 C2.625 0.5 2.625 0.5 5 2.6875 C6.625 5.5 6.625 5.5 6.4375 8.1875 C5.625 10.5 5.625 10.5 4.625 12.5 C3.965 12.5 3.305 12.5 2.625 12.5 C2.295 13.49 1.965 14.48 1.625 15.5 C0.305 15.5 -1.015 15.5 -2.375 15.5 C-4.3425865 12.19445468 -5.41640726 10.20392348 -5.1875 6.3125 C-3.58172478 0.75404732 -3.58172478 0.75404732 0 0 Z " fill="#131313" transform="translate(312.375,165.5)"/>
<path d="M0 0 C6.6 0 13.2 0 20 0 C19 5 19 5 17.875 6.8125 C14.70039159 8.82308533 12.70922572 8.52988939 9 8 C5.49944535 6.23951697 2.24403291 4.19314901 -1 2 C-0.67 1.34 -0.34 0.68 0 0 Z " fill="#E1E2E2" transform="translate(182,134)"/>
<path d="M0 0 C-1.65 0.66 -3.3 1.32 -5 2 C-4.67 2.66 -4.34 3.32 -4 4 C-4.99 4.37125 -5.98 4.7425 -7 5.125 C-15.2186165 8.6591718 -21.98369736 14.49774461 -25.40625 22.88671875 C-26.60552497 27.15519084 -26.76871024 31.58954353 -27 36 C-27.33 36 -27.66 36 -28 36 C-28 28.08 -28 20.16 -28 12 C-27.67 12 -27.34 12 -27 12 C-26.67 13.65 -26.34 15.3 -26 17 C-25.525625 16.175 -25.05125 15.35 -24.5625 14.5 C-19.73835062 7.33172169 -9.41232604 -3.19384547 0 0 Z " fill="#D6D7D7" transform="translate(97,95)"/>
<path d="M0 0 C3.11148322 2.13546006 5.79999473 4.27220229 6.79296875 8.0234375 C7.16796875 11.5234375 7.16796875 11.5234375 6.79296875 15.0234375 C4.79296875 17.4609375 4.79296875 17.4609375 2.79296875 19.0234375 C2.85097656 18.35957031 2.90898437 17.69570312 2.96875 17.01171875 C3.32967511 11.04443696 3.32967511 11.04443696 0.41796875 5.9609375 C-4.20461283 2.54903205 -7.60977465 2.772526 -13.20703125 3.0234375 C-16.09790099 3.44794378 -16.09790099 3.44794378 -18.20703125 4.0234375 C-17.39453125 2.0859375 -17.39453125 2.0859375 -16.20703125 0.0234375 C-11.0714354 -1.68842778 -5.04811307 -2.23367835 0 0 Z " fill="#DCDCDC" transform="translate(239.20703125,73.9765625)"/>
<path d="M0 0 C3.18363297 0.37900393 6.04734436 1.01586126 9.08984375 2.03515625 C13.68361871 3.36650029 18.19133713 3.21884048 22.9375 3.125 C23.81212891 3.11597656 24.68675781 3.10695313 25.58789062 3.09765625 C27.72538064 3.0742957 29.86272786 3.03843247 32 3 C31 6 31 6 29 7 C19.06059775 7.78435128 10.28097804 6.95488022 1 3 C0.34 2.34 -0.32 1.68 -1 1 C-0.67 0.67 -0.34 0.34 0 0 Z " fill="#E4E5E6" transform="translate(179,65)"/>
<path d="M0 0 C0.66 0 1.32 0 2 0 C4.875 6.625 4.875 6.625 6 10 C13.30345696 12.72089573 18.78878992 12.30758723 26 10 C25.8125 11.875 25.8125 11.875 25 14 C21.01068875 16.41776439 16.54558314 16.70862703 12 16 C7.71318664 14.31651459 3.70148271 11.74051452 1 8 C0.38679733 5.29775094 0.18547607 2.78214098 0 0 Z " fill="#CFD0CF" transform="translate(226,88)"/>
<path d="M0 0 C0.7109375 1.578125 0.7109375 1.578125 1 4 C-0.01942572 6.42039088 -1.05281844 8.50532429 -2.375 10.75 C-2.91386841 11.67945435 -2.91386841 11.67945435 -3.46362305 12.62768555 C-7.19996991 18.78360859 -11.99085988 24.66361996 -19 27 C-17.70863118 23.83027653 -15.94034855 21.95599431 -13.49609375 19.61328125 C-8.70396644 14.44579149 -5.01045876 8.33780792 -2 2 C-1.34 1.34 -0.68 0.68 0 0 Z " fill="#E4E4E4" transform="translate(134,80)"/>
<path d="M0 0 C0.99 0.33 1.98 0.66 3 1 C2.27554688 1.58265625 1.55109375 2.1653125 0.8046875 2.765625 C-6.26121478 8.75751014 -10.44316703 14.26549878 -14 23 C-14.99 23 -15.98 23 -17 23 C-14.42665226 13.24836647 -9.83140105 7.00806589 -1.83203125 0.93359375 C-1.22746094 0.62550781 -0.62289062 0.31742188 0 0 Z " fill="#D4D4D4" transform="translate(137,52)"/>
<path d="M0 0 C0.99 1.485 0.99 1.485 2 3 C2.66 2.67 3.32 2.34 4 2 C4.29390625 2.57105469 4.5878125 3.14210937 4.890625 3.73046875 C9.43102695 11.9371148 15.52281923 18.31320173 22 25 C17.92412524 25 17.01409161 23.74008328 14 21 C12.19557092 19.01761117 10.44498867 16.99790063 8.70703125 14.95703125 C7.2772211 13.31782099 5.74276152 11.77070015 4.1875 10.25 C0.74167383 6.70572165 0 4.98255646 0 0 Z " fill="#929594" transform="translate(81,145)"/>
<path d="M0 0 C-0.99 0.33 -1.98 0.66 -3 1 C-3.556875 1.556875 -4.11375 2.11375 -4.6875 2.6875 C-7.26462874 5.26462874 -10.03126583 7.31654957 -12.9609375 9.47265625 C-15.73159583 11.54799611 -18.36278428 13.75836664 -21 16 C-20.57761101 11.21292473 -18.3521441 8.26227429 -15 5 C-5.5785124 -2.0661157 -5.5785124 -2.0661157 0 0 Z " fill="#E3E3E2" transform="translate(165,78)"/>
<path d="M0 0 C2.97 0.495 2.97 0.495 6 1 C6 1.99 6 2.98 6 4 C6.33 4.66 6.66 5.32 7 6 C2.38 6 -2.24 6 -7 6 C-7.33 5.34 -7.66 4.68 -8 4 C-9.98 4 -11.96 4 -14 4 C-10.71508627 1.81005752 -9.16904361 1.64722661 -5.3125 1.375 C-4.31863281 1.30023438 -3.32476562 1.22546875 -2.30078125 1.1484375 C-1.54152344 1.09945312 -0.78226563 1.05046875 0 1 C0 0.67 0 0.34 0 0 Z " fill="#A4A4A4" transform="translate(237,58)"/>
<path d="M0 0 C-0.33 0.66 -0.66 1.32 -1 2 C-7.93 2 -14.86 2 -22 2 C-21.67 1.01 -21.34 0.02 -21 -1 C-14.41053892 -3.19648703 -6.34195101 -2.81864489 0 0 Z " fill="#F2F3F3" transform="translate(183,79)"/>
<path d="M0 0 C1.125 1.625 1.125 1.625 2 4 C1.40089858 6.02126741 0.72475198 8.02030835 0 10 C-0.27580863 12.28452807 -0.4843786 14.57818383 -0.625 16.875 C-0.69976562 18.02742188 -0.77453125 19.17984375 -0.8515625 20.3671875 C-0.90054688 21.23601562 -0.94953125 22.10484375 -1 23 C-3 22 -3 22 -4 19 C-4.88831261 11.87893663 -2.99518333 6.40487863 0 0 Z " fill="#CECECE" transform="translate(95,131)"/>
<path d="M0 0 C0 0.33 0 0.66 0 1 C-0.86882812 1.21914062 -1.73765625 1.43828125 -2.6328125 1.6640625 C-9.84059263 3.6474114 -14.18161623 5.27003011 -19 11 C-19.66 11 -20.32 11 -21 11 C-20.2460547 6.45622297 -17.9581641 4.33550358 -14.54296875 1.41796875 C-9.9389173 -1.14926731 -5.10439934 -0.53596193 0 0 Z " fill="#D7D7D4" transform="translate(117,122)"/>
<path d="M0 0 C4.43744539 -0.05793591 8.87479389 -0.09357467 13.3125 -0.125 C14.57513672 -0.14175781 15.83777344 -0.15851562 17.13867188 -0.17578125 C18.95141602 -0.18544922 18.95141602 -0.18544922 20.80078125 -0.1953125 C21.91622314 -0.20578613 23.03166504 -0.21625977 24.1809082 -0.22705078 C27 0 27 0 30 2 C28.35 2 26.7 2 25 2 C24.67 3.32 24.34 4.64 24 6 C21.69 5.67 19.38 5.34 17 5 C17 4.01 17 3.02 17 2 C11.39 1.67 5.78 1.34 0 1 C0 0.67 0 0.34 0 0 Z " fill="#232525" transform="translate(191,45)"/>
<path d="M0 0 C4.455 0.99 4.455 0.99 9 2 C8.07161713 3.31896465 7.13194268 4.62998689 6.1875 5.9375 C5.40439453 7.03384766 5.40439453 7.03384766 4.60546875 8.15234375 C3 10 3 10 0 11 C0 7.37 0 3.74 0 0 Z " fill="#EAEAEA" transform="translate(266,271)"/>
<path d="M0 0 C2.95653215 1.38546013 5.48533196 3.02349716 8.125 4.9375 C12.81960915 8.13233385 17.50934897 9.69324798 23 11 C22.01 12.485 22.01 12.485 21 14 C12.23669969 11.82471269 5.22145236 7.47094598 0 0 Z " fill="#C2C4C3" transform="translate(163,41)"/>
<path d="M0 0 C0.33 0 0.66 0 1 0 C1.02578125 0.72445312 1.0515625 1.44890625 1.078125 2.1953125 C1.43139896 8.21702772 1.87710726 12.30448327 6 17 C7.62332967 18.38576923 9.28724465 19.72641268 11 21 C12.0173873 21.98230498 13.02596117 22.97469597 14 24 C9.12090114 23.55644556 5.51337665 21.29691268 2 18 C-1.14301747 13.92046265 -1.24865825 11.23792428 -0.6875 6.1875 C-0.56761719 5.02605469 -0.44773438 3.86460938 -0.32421875 2.66796875 C-0.21722656 1.78753906 -0.11023438 0.90710938 0 0 Z " fill="#BDBDBC" transform="translate(216,87)"/>
<path d="M0 0 C5.26159459 -0.64165788 7.68592849 0.79422999 11.6796875 3.90625 C12.11539063 4.2671875 12.55109375 4.628125 13 5 C11 7 11 7 8.90625 7.046875 C8.1121875 6.94890625 7.318125 6.8509375 6.5 6.75 C5.30890625 6.61851563 5.30890625 6.61851563 4.09375 6.484375 C2 6 2 6 0 4 C0.99 3.67 1.98 3.34 3 3 C2.01 2.01 1.02 1.02 0 0 Z " fill="#393939" transform="translate(240,60)"/>
<path d="M0 0 C0.97066406 -0.01417969 1.94132813 -0.02835937 2.94140625 -0.04296875 C5.4375 0.1875 5.4375 0.1875 7.4375 2.1875 C4.45325868 3.91308171 2.43143623 4.39867575 -1 4.25 C-4.34810196 4.16712619 -7.29581056 4.34448337 -10.5625 5.1875 C-9.75 3.25 -9.75 3.25 -8.5625 1.1875 C-5.47951949 0.15983983 -3.23119574 0.02151262 0 0 Z " fill="#DEE2E1" transform="translate(231.5625,72.8125)"/>
<path d="M0 0 C0.66 0 1.32 0 2 0 C0.9134677 5.07048407 -1.12118082 7.64989444 -5.046875 10.80859375 C-8.05175084 12.64156801 -10.51063912 12.85757711 -14 13 C-11.792805 10.62302077 -9.73825752 8.83095798 -7 7.0625 C-3.98234306 4.98786085 -2.22779512 2.86430801 0 0 Z " fill="#D8D7D3" transform="translate(162,125)"/>
<path d="M0 0 C-1.37070781 0.65489373 -2.74683444 1.29844963 -4.125 1.9375 C-4.89070313 2.29714844 -5.65640625 2.65679687 -6.4453125 3.02734375 C-11.69986828 5.0279315 -16.80103597 5.11508457 -22.375 5.0625 C-24.24285156 5.04896484 -24.24285156 5.04896484 -26.1484375 5.03515625 C-27.55996094 5.01775391 -27.55996094 5.01775391 -29 5 C-29 4.67 -29 4.34 -29 4 C-28.3915625 3.97421875 -27.783125 3.9484375 -27.15625 3.921875 C-20.2779456 3.47680824 -13.92582468 2.12061304 -7.30859375 0.28417969 C-2.20029736 -1.10014868 -2.20029736 -1.10014868 0 0 Z " fill="#9D9F9F" transform="translate(250,115)"/>
<path d="M0 0 C0.66 0 1.32 0 2 0 C4.875 6.625 4.875 6.625 6 10 C8.00016466 11.20882096 8.00016466 11.20882096 10 12 C9.01 12.33 8.02 12.66 7 13 C1.44843694 9.5580309 1.44843694 9.5580309 0.390625 5.8828125 C0.125 3.6875 0.125 3.6875 0 0 Z " fill="#DBDBDB" transform="translate(226,88)"/>
<path d="M0 0 C6.27 0.33 12.54 0.66 19 1 C18.67 1.66 18.34 2.32 18 3 C15.56183415 3.0809723 13.12635616 3.14046972 10.6875 3.1875 C9.65206055 3.22520508 9.65206055 3.22520508 8.59570312 3.26367188 C6.57421875 3.29296875 6.57421875 3.29296875 3 3 C2.01 2.01 1.02 1.02 0 0 Z " fill="#E2E4E3" transform="translate(183,53)"/>
<path d="M0 0 C0.33 0 0.66 0 1 0 C1.33 6.93 1.66 13.86 2 21 C0.35 19.35 -1.3 17.7 -3 16 C-2.68289062 15.46890625 -2.36578125 14.9378125 -2.0390625 14.390625 C-0.7629651 11.45464152 -0.58292979 8.93825671 -0.375 5.75 C-0.30023438 4.67234375 -0.22546875 3.5946875 -0.1484375 2.484375 C-0.09945312 1.66453125 -0.05046875 0.8446875 0 0 Z " fill="#272727" transform="translate(94,141)"/>
<path d="M0 0 C4.455 0.99 4.455 0.99 9 2 C8.01 3.485 8.01 3.485 7 5 C6.32582031 4.84660156 5.65164062 4.69320312 4.95703125 4.53515625 C1.53122048 3.91516143 -1.83893447 3.6647426 -5.3125 3.4375 C-6.56675781 3.35371094 -7.82101563 3.26992187 -9.11328125 3.18359375 C-10.54220703 3.09271484 -10.54220703 3.09271484 -12 3 C-12 2.67 -12 2.34 -12 2 C-6.06 1.505 -6.06 1.505 0 1 C0 0.67 0 0.34 0 0 Z " fill="#C4C8C7" transform="translate(171,62)"/>
<path d="M0 0 C3.88397689 1.55002747 6.02979619 4.00476621 8.75 7.125 C9.94882813 8.49011719 9.94882813 8.49011719 11.171875 9.8828125 C12.07679687 10.93082031 12.07679687 10.93082031 13 12 C8.97698923 12 7.95743123 10.67577112 5 8 C0 2.65940054 0 2.65940054 0 0 Z " fill="#C1C1C1" transform="translate(90,158)"/>
<path d="M0 0 C2.2870771 0.26970249 4.53591335 0.60689229 6.796875 1.04296875 C4.1328125 4.01953125 4.1328125 4.01953125 1.109375 4.23046875 C-0.0353125 4.13765625 -0.0353125 4.13765625 -1.203125 4.04296875 C-1.203125 4.70296875 -1.203125 5.36296875 -1.203125 6.04296875 C-2.523125 5.38296875 -3.843125 4.72296875 -5.203125 4.04296875 C-3.94603213 1.27736445 -3.13780685 0.06119836 0 0 Z " fill="#343435" transform="translate(123.203125,116.95703125)"/>
<path d="M0 0 C2.26171875 0.30859375 2.26171875 0.30859375 5 1 C6.93678017 1.35808216 8.87429326 1.71222167 10.8125 2.0625 C11.78832031 2.23910156 12.76414063 2.41570312 13.76953125 2.59765625 C14.50558594 2.73042969 15.24164063 2.86320312 16 3 C16 3.33 16 3.66 16 4 C13.5622037 4.05397335 11.12560315 4.09365616 8.6875 4.125 C7.65206055 4.15013672 7.65206055 4.15013672 6.59570312 4.17578125 C2.82864604 4.21217794 1.21568296 4.14378864 -2 2 C-1.34 1.34 -0.68 0.68 0 0 Z " fill="#BEC0C3" transform="translate(216,115)"/>
<path d="M0 0 C0.99 0.33 1.98 0.66 3 1 C1.59785066 2.36919284 0.17771527 3.71998709 -1.25 5.0625 C-2.43335938 6.19365234 -2.43335938 6.19365234 -3.640625 7.34765625 C-6 9 -6 9 -8.296875 8.74609375 C-8.85890625 8.49988281 -9.4209375 8.25367188 -10 8 C-8.40629329 6.63353852 -6.79967018 5.28212834 -5.1875 3.9375 C-4.29417969 3.18339844 -3.40085938 2.42929687 -2.48046875 1.65234375 C-1.25263672 0.83443359 -1.25263672 0.83443359 0 0 Z " fill="#D1D1D1" transform="translate(137,52)"/>
<path d="M0 0 C0.33 0 0.66 0 1 0 C1.22786458 1.98567708 1.45572917 3.97135417 1.68359375 5.95703125 C1.97170735 8.19396393 1.97170735 8.19396393 3 11 C2.67 11.66 2.34 12.32 2 13 C1.7724985 14.87056791 1.59037189 16.74685958 1.4375 18.625 C1.35371094 19.62789062 1.26992187 20.63078125 1.18359375 21.6640625 C1.12300781 22.43492187 1.06242187 23.20578125 1 24 C0.67 24 0.34 24 0 24 C0 16.08 0 8.16 0 0 Z " fill="#898F8E" transform="translate(69,107)"/>
<path d="M0 0 C0.99 0.33 1.98 0.66 3 1 C3 4.96 3 8.92 3 13 C1 12 1 12 0 9 C-0.06740865 7.43881572 -0.08514456 5.8749748 -0.0625 4.3125 C-0.05347656 3.50425781 -0.04445313 2.69601563 -0.03515625 1.86328125 C-0.02355469 1.24839844 -0.01195313 0.63351563 0 0 Z " fill="#919191" transform="translate(91,141)"/>
<path d="M0 0 C3.96 0 7.92 0 12 0 C12 0.33 12 0.66 12 1 C7.38 2.32 2.76 3.64 -2 5 C-1.34 3.35 -0.68 1.7 0 0 Z " fill="#E8E9E8" transform="translate(105,122)"/>
<path d="M0 0 C0.66 1.32 1.32 2.64 2 4 C1.34 4 0.68 4 0 4 C0 4.99 0 5.98 0 7 C0.66 7.33 1.32 7.66 2 8 C1.01 10.31 0.02 12.62 -1 15 C-1.33 15 -1.66 15 -2 15 C-2.3690205 4.44191344 -2.3690205 4.44191344 0 0 Z " fill="#373C3C" transform="translate(72,100)"/>
<path d="M0 0 C0 0.66 0 1.32 0 2 C-3.63 2.66 -7.26 3.32 -11 4 C-10.34 2.68 -9.68 1.36 -9 0 C-5.41410857 -0.99184231 -3.55287397 -1.18429132 0 0 Z " fill="#E8E9E8" transform="translate(230,62)"/>
<path d="M0 0 C1.258125 0.12375 2.51625 0.2475 3.8125 0.375 C4.87404297 0.47941406 4.87404297 0.47941406 5.95703125 0.5859375 C8 1 8 1 11 3 C10.01 3.33 9.02 3.66 8 4 C7.67 4.66 7.34 5.32 7 6 C6.566875 5.505 6.13375 5.01 5.6875 4.5 C4.00259517 2.66781808 4.00259517 2.66781808 1 3 C0.67 2.01 0.34 1.02 0 0 Z " fill="#363838" transform="translate(161,39)"/>
<path d="M0 0 C0.65234375 1.765625 0.65234375 1.765625 1 4 C0.00390625 5.921875 0.00390625 5.921875 -1.4375 7.75 C-2.14712891 8.67039062 -2.14712891 8.67039062 -2.87109375 9.609375 C-3.24363281 10.06828125 -3.61617188 10.5271875 -4 11 C-4.6171875 9.19921875 -4.6171875 9.19921875 -5 7 C-3.50594347 4.4601039 -2.09462345 2.09462345 0 0 Z " fill="#BABCBC" transform="translate(76,105)"/>
<path d="M0 0 C-1.65 0.66 -3.3 1.32 -5 2 C-4.67 2.66 -4.34 3.32 -4 4 C-5.98 4.33 -7.96 4.66 -10 5 C-10.33 4.01 -10.66 3.02 -11 2 C-3.57142857 -1.57142857 -3.57142857 -1.57142857 0 0 Z " fill="#CACACA" transform="translate(97,95)"/>
<path d="M0 0 C0.33 0.66 0.66 1.32 1 2 C1.66 2.33 2.32 2.66 3 3 C0.69 4.98 -1.62 6.96 -4 9 C-3.46930939 5.17902761 -2.50298434 2.93828597 0 0 Z " fill="#C4C5C3" transform="translate(148,85)"/>
<path d="M0 0 C3.96 0 7.92 0 12 0 C12 0.33 12 0.66 12 1 C2.58997722 3.11161731 2.58997722 3.11161731 -2 4 C-1.34 2.68 -0.68 1.36 0 0 Z " fill="#F4F5F5" transform="translate(223,74)"/>
<path d="M0 0 C0.66 0.33 1.32 0.66 2 1 C1.67 1.99 1.34 2.98 1 4 C-2.67566856 5.61729417 -7.07239675 5.06546005 -11 5 C-11 4.67 -11 4.34 -11 4 C-10.113125 3.71125 -9.22625 3.4225 -8.3125 3.125 C-5.06255911 2.07059693 -5.06255911 2.07059693 -2.25 0.8125 C-1.5075 0.544375 -0.765 0.27625 0 0 Z " fill="#B8B8B8" transform="translate(150,135)"/>
<path d="M0 0 C-1.9626228 2.04795423 -3.4277307 2.94976638 -6.26953125 3.19921875 C-8.51954383 3.18858877 -10.75385562 3.12958525 -13 3 C-8.8341563 0.22277086 -4.9360889 -1.89849573 0 0 Z " fill="#B1B2B3" transform="translate(214,50)"/>
<path d="M0 0 C3.15330554 0.60694155 5.18888867 1.6416665 7.75 3.5625 C8.67039063 4.24505859 8.67039063 4.24505859 9.609375 4.94140625 C10.29773438 5.46541016 10.29773438 5.46541016 11 6 C8 7 8 7 5.95703125 6.07421875 C4.89548828 5.38779297 4.89548828 5.38779297 3.8125 4.6875 C3.09707031 4.23761719 2.38164062 3.78773437 1.64453125 3.32421875 C1.10183594 2.88722656 0.55914062 2.45023437 0 2 C0 1.34 0 0.68 0 0 Z " fill="#AFAFAF" transform="translate(219,104)"/>
<path d="M0 0 C0 3.59857954 -0.95830515 5.09451118 -3 8 C-3.66 8 -4.32 8 -5 8 C-4.125 3.25 -4.125 3.25 -3 1 C-2.01 0.67 -1.02 0.34 0 0 Z " fill="#E3E3E1" transform="translate(129,60)"/>
<path d="M0 0 C0 0.66 0 1.32 0 2 C-6.28571429 4.42857143 -6.28571429 4.42857143 -10 3 C-6.27034861 0.96564469 -4.33094958 0 0 0 Z " fill="#F5F6F6" transform="translate(101,94)"/>
<path d="M0 0 C2.8992226 0.46761655 3.86675182 0.86675182 6 3 C3.03 3.66 0.06 4.32 -3 5 C-1 1 -1 1 0 0 Z " fill="#E5E7E7" transform="translate(153,62)"/>
<path d="M0 0 C3.65316671 1.24976756 4.78065836 1.67098753 7 5 C4.6875 5.25 4.6875 5.25 2 5 C0.1875 3 0.1875 3 -1 1 C-0.67 0.67 -0.34 0.34 0 0 Z " fill="#E1E1E4" transform="translate(210,112)"/>
<path d="M0 0 C-0.99 0.33 -1.98 0.66 -3 1 C-3.99 2.485 -3.99 2.485 -5 4 C-6.65 3.67 -8.3 3.34 -10 3 C-9 1 -9 1 -6.6875 -0.1875 C-3.88010429 -1.03624754 -2.698065 -0.99928333 0 0 Z " fill="#D5D5D4" transform="translate(165,78)"/>
<path d="M0 0 C0.66 0 1.32 0 2 0 C1.43628586 3.26954202 0.50037734 4.82575883 -2 7 C-2.66 6.67 -3.32 6.34 -4 6 C-2.84826645 3.53199953 -1.95216435 1.95216435 0 0 Z " fill="#C4C5C5" transform="translate(166,99)"/>
<path d="M0 0 C5.53846154 -0.36923077 5.53846154 -0.36923077 7.875 1.5 C8.24625 1.995 8.6175 2.49 9 3 C7.3125 3.75 7.3125 3.75 5 4 C2.25 2.0625 2.25 2.0625 0 0 Z " fill="#A9A9AB" transform="translate(125,119)"/>
<path d="M0 0 C0.33 0.99 0.66 1.98 1 3 C-0.32 4.32 -1.64 5.64 -3 7 C-3.66 6.67 -4.32 6.34 -5 6 C-3.63016497 2.83884224 -3.0109362 2.0072908 0 0 Z " fill="#EBEBEB" transform="translate(118,80)"/>
<path d="M0 0 C3.5786304 1.65167557 6.74820188 3.78286492 10 6 C9.34 6.66 8.68 7.32 8 8 C6.66372225 6.85760183 5.33104612 5.71098945 4 4.5625 C3.2575 3.92441406 2.515 3.28632812 1.75 2.62890625 C1.1725 2.09136719 0.595 1.55382813 0 1 C0 0.67 0 0.34 0 0 Z " fill="#9A9A9B" transform="translate(163,41)"/>
<path d="M0 0 C3 0 3 0 5.1875 2 C5.785625 2.66 6.38375 3.32 7 4 C6.34 4.66 5.68 5.32 5 6 C3.2925002 4.71937515 1.62626404 3.38232443 0 2 C0 1.34 0 0.68 0 0 Z " fill="#848484" transform="translate(84,153)"/>
<path d="M0 0 C0.66 1.32 1.32 2.64 2 4 C0.35 4.66 -1.3 5.32 -3 6 C-3.66 5.34 -4.32 4.68 -5 4 C-3.35 2.68 -1.7 1.36 0 0 Z " fill="#C1C2C2" transform="translate(154,117)"/>
<path d="M0 0 C2.475 0.99 2.475 0.99 5 2 C3 4 3 4 0.375 4.125 C-0.40875 4.08375 -1.1925 4.0425 -2 4 C-1.34 2.68 -0.68 1.36 0 0 Z " fill="#312D2F" transform="translate(248,63)"/>
</svg>
